<svg xmlns:xlink="http://www.w3.org/1999/xlink" viewBox="0 0 512 512" xmlns="http://www.w3.org/2000/svg">
  <defs>
    <linearGradient id="partly-cloudy-day-fog_svg__c" x1="99.5" x2="232.6" y1="30.7" y2="261.4" gradientUnits="userSpaceOnUse">
      <stop offset="0" stop-color="#f3f7fe"/>
      <stop offset=".5" stop-color="#f3f7fe"/>
      <stop offset="1" stop-color="#deeafb"/>
    </linearGradient>
    <linearGradient id="partly-cloudy-day-fog_svg__a" x1="96" x2="168" y1="-2.4" y2="122.3" gradientUnits="userSpaceOnUse">
      <stop offset="0" stop-color="#d4d7dd"/>
      <stop offset=".5" stop-color="#d4d7dd"/>
      <stop offset="1" stop-color="#bec1c6"/>
    </linearGradient>
    <linearGradient xlink:href="#partly-cloudy-day-fog_svg__a" id="partly-cloudy-day-fog_svg__f" x2="168" y1="-50.4" y2="74.3"/>
    <linearGradient id="partly-cloudy-day-fog_svg__b" x1="78" x2="118" y1="63.4" y2="132.7" gradientUnits="userSpaceOnUse">
      <stop offset="0" stop-color="#fbbf24"/>
      <stop offset=".5" stop-color="#fbbf24"/>
      <stop offset="1" stop-color="#f59e0b"/>
    </linearGradient>
    <symbol id="partly-cloudy-day-fog_svg__d" viewBox="0 0 196 196">
      <circle cx="98" cy="98" r="40" fill="url(#partly-cloudy-day-fog_svg__b)" stroke="#f8af18" stroke-miterlimit="10" stroke-width="4"/>
      <path fill="none" stroke="#fbbf24" stroke-linecap="round" stroke-miterlimit="10" stroke-width="12" d="M98 31.4V6m0 184v-25.4M145.1 51l18-17.9M33 163l18-17.9M51 51 33 33m130.1 130.1-18-18M6 98h25.4M190 98h-25.4">
        <animateTransform additive="sum" attributeName="transform" dur="6s" repeatCount="indefinite" type="rotate" values="0 98 98; 45 98 98"/>
      </path>
    </symbol>
    <symbol id="partly-cloudy-day-fog_svg__e" viewBox="0 0 350 222">
      <path fill="url(#partly-cloudy-day-fog_svg__c)" stroke="#e6effc" stroke-miterlimit="10" stroke-width="6" d="m291 107-2.5.1A83.9 83.9 0 0 0 135.6 43 56 56 0 0 0 51 91a56.6 56.6 0 0 0 .8 9A60 60 0 0 0 63 219l4-.2v.2h224a56 56 0 0 0 0-112Z"/>
    </symbol>
    <symbol id="partly-cloudy-day-fog_svg__g" viewBox="0 0 363 258">
      <use xlink:href="#partly-cloudy-day-fog_svg__d" width="196" height="196"/>
      <use xlink:href="#partly-cloudy-day-fog_svg__e" width="350" height="222" transform="translate(13 36)"/>
    </symbol>
    <symbol id="partly-cloudy-day-fog_svg__h" overflow="visible" viewBox="0 0 264 72">
      <path fill="none" stroke="url(#partly-cloudy-day-fog_svg__a)" stroke-linecap="round" stroke-miterlimit="10" stroke-width="24" d="M12 60h240">
        <animateTransform additive="sum" attributeName="transform" dur="6s" repeatCount="indefinite" type="translate" values="-24 0; 24 0; -24 0"/>
      </path>
      <path fill="none" stroke="url(#partly-cloudy-day-fog_svg__f)" stroke-linecap="round" stroke-miterlimit="10" stroke-width="24" d="M12 12h240">
        <animateTransform additive="sum" attributeName="transform" dur="6s" repeatCount="indefinite" type="translate" values="24 0; -24 0; 24 0"/>
      </path>
    </symbol>
  </defs>
  <use xlink:href="#partly-cloudy-day-fog_svg__g" width="363" height="258" transform="translate(68 109)"/>
  <use xlink:href="#partly-cloudy-day-fog_svg__h" width="264" height="72" transform="translate(124 402)"/>
</svg>
