<svg xmlns:xlink="http://www.w3.org/1999/xlink" viewBox="0 0 512 512" xmlns="http://www.w3.org/2000/svg">
  <defs>
    <linearGradient id="thunderstorms-extreme-snow_svg__b" x1="52.7" x2="133.4" y1="9.6" y2="149.3" gradientUnits="userSpaceOnUse">
      <stop offset="0" stop-color="#9ca3af"/>
      <stop offset=".5" stop-color="#9ca3af"/>
      <stop offset="1" stop-color="#6b7280"/>
    </linearGradient>
    <linearGradient id="thunderstorms-extreme-snow_svg__c" x1="99.5" x2="232.6" y1="30.7" y2="261.4" gradientUnits="userSpaceOnUse">
      <stop offset="0" stop-color="#6b7280"/>
      <stop offset=".5" stop-color="#6b7280"/>
      <stop offset="1" stop-color="#4b5563"/>
    </linearGradient>
    <linearGradient id="thunderstorms-extreme-snow_svg__n" x1="8.7" x2="80.9" y1="17.1" y2="142.1" gradientUnits="userSpaceOnUse">
      <stop offset="0" stop-color="#f7b23b"/>
      <stop offset=".5" stop-color="#f7b23b"/>
      <stop offset="1" stop-color="#f59e0b"/>
    </linearGradient>
    <linearGradient id="thunderstorms-extreme-snow_svg__a" x1="11.4" x2="32.8" y1="5.9" y2="43.1" gradientUnits="userSpaceOnUse">
      <stop offset="0" stop-color="#86c3db"/>
      <stop offset=".5" stop-color="#86c3db"/>
      <stop offset="1" stop-color="#5eafcf"/>
    </linearGradient>
    <linearGradient xlink:href="#thunderstorms-extreme-snow_svg__a" id="thunderstorms-extreme-snow_svg__h" x1="67.4" x2="88.8" y1="5.9" y2="43.1"/>
    <linearGradient xlink:href="#thunderstorms-extreme-snow_svg__a" id="thunderstorms-extreme-snow_svg__k" x1="123.4" x2="144.8" y1="5.9" y2="43.1"/>
    <symbol id="thunderstorms-extreme-snow_svg__d" viewBox="0 0 200.3 126.1">
      <path fill="url(#thunderstorms-extreme-snow_svg__b)" stroke="#848b98" stroke-miterlimit="10" d="M.5 93.2a32.4 32.4 0 0 0 32.4 32.4h129.8v-.1l2.3.1a34.8 34.8 0 0 0 6.5-68.9 32.4 32.4 0 0 0-48.5-33 48.6 48.6 0 0 0-88.6 37.1h-1.5A32.4 32.4 0 0 0 .5 93.1Z"/>
    </symbol>
    <symbol id="thunderstorms-extreme-snow_svg__e" viewBox="0 0 350 222">
      <path fill="url(#thunderstorms-extreme-snow_svg__c)" stroke="#5b6472" stroke-miterlimit="10" stroke-width="6" d="m291 107-2.5.1A83.9 83.9 0 0 0 135.6 43 56 56 0 0 0 51 91a56.6 56.6 0 0 0 .8 9A60 60 0 0 0 63 219l4-.2v.2h224a56 56 0 0 0 0-112Z"/>
    </symbol>
    <symbol id="thunderstorms-extreme-snow_svg__p" overflow="visible" viewBox="0 0 398 222">
      <use xlink:href="#thunderstorms-extreme-snow_svg__d" width="200.3" height="126.1" transform="translate(198 27)">
        <animateTransform additive="sum" attributeName="transform" dur="6s" repeatCount="indefinite" type="translate" values="-9 0; 9 0; -9 0"/>
      </use>
      <use xlink:href="#thunderstorms-extreme-snow_svg__e" width="350" height="222">
        <animateTransform additive="sum" attributeName="transform" dur="6s" repeatCount="indefinite" type="translate" values="-18 0; 18 0; -18 0"/>
      </use>
    </symbol>
    <symbol id="thunderstorms-extreme-snow_svg__q" overflow="visible" viewBox="0 0 156.2 49">
      <g>
        <animateTransform id="thunderstorms-extreme-snow_svg__g" additive="sum" attributeName="transform" begin="0s; g.end+1s" dur="2s" type="translate" values="0 -36; 0 92;"/>
      </g>
      <g>
        <animateTransform id="thunderstorms-extreme-snow_svg__j" additive="sum" attributeName="transform" begin="-.83s; j.end+1s" dur="2s" type="translate" values="0 -36; 0 92;"/>
      </g>
      <g>
        <animateTransform id="thunderstorms-extreme-snow_svg__m" additive="sum" attributeName="transform" begin=".83s; m.end+1s" dur="2s" type="translate" values="0 -36; 0 92;"/>
      </g>
    </symbol>
    <symbol id="thunderstorms-extreme-snow_svg__r" viewBox="0 0 102.7 186.8">
      <path fill="url(#thunderstorms-extreme-snow_svg__n)" stroke="#f6a823" stroke-miterlimit="10" stroke-width="4" d="m34.8 2-32 96h32l-16 80 80-112h-48l32-64h-48z">
        <animate id="thunderstorms-extreme-snow_svg__o" attributeName="opacity" begin="0s; o.end+.67s" dur="1.33s" keyTimes="0; .38; .5; .63; .75; .86; .94; 1" values="1; 1; 0; 1; 0; 1; 0; 1"/>
      </path>
    </symbol>
  </defs>
  <use xlink:href="#thunderstorms-extreme-snow_svg__p" width="398" height="222" transform="translate(68.84 145)"/>
  <use xlink:href="#thunderstorms-extreme-snow_svg__q" width="156.2" height="49" transform="translate(177.9 337.5)"/>
  <use xlink:href="#thunderstorms-extreme-snow_svg__r" width="102.7" height="186.7" transform="translate(205.23 291)"/>
</svg>
