<svg xmlns:xlink="http://www.w3.org/1999/xlink" viewBox="0 0 512 512" xmlns="http://www.w3.org/2000/svg">
  <defs>
    <linearGradient id="overcast-haze_svg__1__c" x1="99.5" x2="232.6" y1="30.7" y2="261.4" gradientUnits="userSpaceOnUse">
      <stop offset="0" stop-color="#f3f7fe"/>
      <stop offset=".5" stop-color="#f3f7fe"/>
      <stop offset="1" stop-color="#deeafb"/>
    </linearGradient>
    <linearGradient id="overcast-haze_svg__1__b" x1="52.7" x2="133.4" y1="9.6" y2="149.3" gradientUnits="userSpaceOnUse">
      <stop offset="0" stop-color="#9ca3af"/>
      <stop offset=".5" stop-color="#9ca3af"/>
      <stop offset="1" stop-color="#6b7280"/>
    </linearGradient>
    <linearGradient id="overcast-haze_svg__1__a" x1="17.3" x2="89.3" y1="43.1" y2="167.8" gradientUnits="userSpaceOnUse">
      <stop offset="0" stop-color="#d4d7dd"/>
      <stop offset=".5" stop-color="#d4d7dd"/>
      <stop offset="1" stop-color="#bec1c6"/>
    </linearGradient>
    <linearGradient xlink:href="#overcast-haze_svg__1__a" id="overcast-haze_svg__1__f" x1="107.3" x2="179.3" y1="-8.8" y2="115.9"/>
    <linearGradient xlink:href="#overcast-haze_svg__1__a" id="overcast-haze_svg__1__g" x1="174.8" x2="246.8" y1="-47.8" y2="76.9"/>
    <linearGradient xlink:href="#overcast-haze_svg__1__a" id="overcast-haze_svg__1__h" x2="89.3" y1="-4.9" y2="119.8"/>
    <linearGradient xlink:href="#overcast-haze_svg__1__a" id="overcast-haze_svg__1__i" x1="107.3" x2="179.3" y1="-56.9" y2="67.9"/>
    <linearGradient xlink:href="#overcast-haze_svg__1__a" id="overcast-haze_svg__1__j" x1="174.8" x2="246.8" y1="-95.8" y2="28.9"/>
    <symbol id="overcast-haze_svg__1__d" viewBox="0 0 200.3 126.1">
      <path fill="url(#overcast-haze_svg__1__b)" stroke="#848b98" stroke-miterlimit="10" d="M.5 93.2a32.4 32.4 0 0 0 32.4 32.4h129.8v-.1l2.3.1a34.8 34.8 0 0 0 6.5-68.9 32.4 32.4 0 0 0-48.5-33 48.6 48.6 0 0 0-88.6 37.1h-1.5A32.4 32.4 0 0 0 .5 93.1Z"/>
    </symbol>
    <symbol id="overcast-haze_svg__1__e" viewBox="0 0 350 222">
      <path fill="url(#overcast-haze_svg__1__c)" stroke="#e6effc" stroke-miterlimit="10" stroke-width="6" d="m291 107-2.5.1A83.9 83.9 0 0 0 135.6 43 56 56 0 0 0 51 91a56.6 56.6 0 0 0 .8 9A60 60 0 0 0 63 219l4-.2v.2h224a56 56 0 0 0 0-112Z"/>
    </symbol>
    <symbol id="overcast-haze_svg__1__k" viewBox="0 0 398 222">
      <use xlink:href="#overcast-haze_svg__1__d" width="200.3" height="126.1" transform="translate(198 27)"/>
      <use xlink:href="#overcast-haze_svg__1__e" width="350" height="222"/>
    </symbol>
    <symbol id="overcast-haze_svg__1__l" viewBox="0 0 264 72">
      <path fill="none" stroke="url(#overcast-haze_svg__1__a)" stroke-linecap="round" stroke-miterlimit="10" stroke-width="24" d="M12 60h30"/>
      <path fill="none" stroke="url(#overcast-haze_svg__1__f)" stroke-dasharray="60 60" stroke-linecap="round" stroke-miterlimit="10" stroke-width="24" d="M102 60h90"/>
      <path fill="none" stroke="url(#overcast-haze_svg__1__g)" stroke-linecap="round" stroke-miterlimit="10" stroke-width="24" d="M222 60h30"/>
      <path fill="none" stroke="url(#overcast-haze_svg__1__h)" stroke-linecap="round" stroke-miterlimit="10" stroke-width="24" d="M12 12h30"/>
      <path fill="none" stroke="url(#overcast-haze_svg__1__i)" stroke-dasharray="60 60" stroke-linecap="round" stroke-miterlimit="10" stroke-width="24" d="M102 12h90"/>
      <path fill="none" stroke="url(#overcast-haze_svg__1__j)" stroke-linecap="round" stroke-miterlimit="10" stroke-width="24" d="M222 12h30"/>
    </symbol>
  </defs>
  <use xlink:href="#overcast-haze_svg__1__k" width="398" height="222" transform="translate(68.84 145)"/>
  <use xlink:href="#overcast-haze_svg__1__l" width="264" height="72" transform="translate(124 402)"/>
</svg>
